<svg xmlns="http://www.w3.org/2000/svg" viewBox="0 0 53.34 40.52"><defs><style>.a{fill:#fff;}</style></defs><title>KubikLogo</title><path class="a" d="M29.8,6.48a1,1,0,0,1,.53-.85L40.59.5a1,1,0,0,1,.85,0l10.1,5a1,1,0,0,1,0,1.7L41.27,12.38a1,1,0,0,1-.85,0l-10.09-5A1,1,0,0,1,29.8,6.48Zm8.42,6.83a1,1,0,0,0-.53-.85l-10.1-5a1,1,0,0,0-.85,0L16.49,12.55a1,1,0,0,0,0,1.7l10.09,5a1,1,0,0,0,.85,0L37.7,14.16A1,1,0,0,0,38.22,13.31ZM24.4,20.23a1,1,0,0,0-.53-.85l-10.1-5a1,1,0,0,0-.85,0L2.66,19.47a1,1,0,0,0,0,1.7l10.09,5a1,1,0,0,0,.85,0l10.27-5.13A1,1,0,0,0,24.4,20.23ZM12.63,28.1V40a1,1,0,0,1-1,1,1,1,0,0,1-.43-.1l-10.2-5.1a1,1,0,0,1-.53-.85V23a1,1,0,0,1,1.38-.85l10.2,5.1A.94.94,0,0,1,12.63,28.1ZM11.7,39.93,11.63,28.1,1.46,23l.07,11.8Zm14.5-17V34.78a.94.94,0,0,1-.53.85L15.3,40.81A1,1,0,0,1,13.92,40V28.09a1,1,0,0,1,.52-.85l10.38-5.19a1,1,0,0,1,1.38.85Zm-1,11.83L25.2,23,14.9,28.13l0,11.83Zm28.64-16V9.07a1,1,0,0,0-1.38-.85L43,12.95h0a.37.37,0,0,0-.18.17.38.38,0,0,0,.17.5h0l1,.49a.38.38,0,0,0,.33-.68l-.05,0,8.57-4.35v9.86h0V20.5a.5.5,0,0,0,1,0V18.71Zm-2,1.4a1,1,0,0,0-.53-.85l-10.1-5a1,1,0,0,0-.85,0L30.09,19.35a1,1,0,0,0,0,1.7l10.09,5a1,1,0,0,0,.85,0L51.31,21A1,1,0,0,0,51.83,20.11ZM40.06,28V39.85a1,1,0,0,1-1.38.85l-10.2-5.1a.94.94,0,0,1-.53-.85V22.88A1,1,0,0,1,29.34,22l10.2,5.1A1,1,0,0,1,40.06,28Zm-.93,11.83L39.06,28,28.89,22.93,29,34.73Zm14.5-17V34.66a.94.94,0,0,1-.53.85L42.73,40.7a1,1,0,0,1-1.38-.85V28a.94.94,0,0,1,.53-.85l10.38-5.19a1,1,0,0,1,1.38.85Zm-1,11.83,0-11.78L42.33,28l0,11.83Z" transform="translate(-0.53 -0.41)"/></svg>