<svg xmlns="http://www.w3.org/2000/svg" viewBox="0 0 86.62 42.86"><defs><style>.a{fill:#fff;}</style></defs><title>menu</title><path class="a" d="M76,42.92h0a.46.46,0,0,1-.62.18l-2.78-1.56a.46.46,0,0,1-.18-.62c.4-.7,1-.08,3.44,1.32a.46.46,0,0,1,.18.62Zm-1.13.73-2.49-1.39c-.51-.29-1,.57-.48.86l2.49,1.39c.5.29,1-.55.48-.86Zm2-2.71-3.16-1.74a.49.49,0,0,0-.48.86l3.17,1.78a.49.49,0,0,0,.67-.19h0a.49.49,0,0,0-.16-.68ZM87,29.54c-1.79-6.17-10.2-7-13-1.84a.47.47,0,0,0,.84.44A6.22,6.22,0,0,1,83.15,26c4.75,2.64,4.75,10.45-2.95,11.68a3.43,3.43,0,0,0-2.85,1.62c-.29-.16-3.15-1.9-3.47-1.77a.49.49,0,0,0-.1,1l3.49,1.9c.26.14.56.08.73-.32a3.32,3.32,0,0,1,2.85-1.54,7,7,0,0,0,6.18-9Z" transform="translate(-1.81 -1.71)"/><path class="a" d="M67.74,34.18A10,10,0,0,1,58,44.46c-5,0-9.74-4.09-9.74-10.63l-1,1.1a.43.43,0,0,1-.3.14.45.45,0,0,1-.3-.77l1.8-1.89a.42.42,0,0,1,.59,0l0,0,1.78,1.88a.46.46,0,0,1,0,.64.42.42,0,0,1-.59,0l0,0-1-1.1c0,6,4.3,9.73,8.88,9.73a9.14,9.14,0,0,0,8.85-9.36A9.14,9.14,0,0,0,58,24.81a8.59,8.59,0,0,0-6.36,2.82.42.42,0,0,1-.59,0l0,0A.47.47,0,0,1,51,27a9.43,9.43,0,0,1,7-3.1A10,10,0,0,1,67.74,34.18Zm-6.89-2.65v1.56h1a.44.44,0,0,1,.43.44h0v5.21a.44.44,0,0,1-.42.45H54.2a.44.44,0,0,1-.43-.44h0V33.54a.44.44,0,0,1,.42-.45h1V31.53a2.9,2.9,0,1,1,5.7,0Zm-4.83,0v1.56h4V31.53a2,2,0,1,0-4,0ZM61.41,34H54.64v4.3h6.77Z" transform="translate(-1.81 -1.71)"/><path class="a" d="M42.29,25.07H27.49a2,2,0,0,0-2,2h0V41.87a2,2,0,0,0,2,2H42.29a2,2,0,0,0,2-2h0V27a2,2,0,0,0-2-2ZM27.49,26H42.29a1,1,0,0,1,1.05,1h0V40.36H26.44V27a1,1,0,0,1,1.05-1ZM42.29,42.9H27.49a1,1,0,0,1-1.05-1h0v-.58H43.34v.58a1,1,0,0,1-1.05,1ZM31.61,31.64a3,3,0,1,1,6,0h-.94a2,2,0,1,0-2,2.07v.94A3,3,0,0,1,31.61,31.64Zm-1,4.69-3.14,2.82v-1l2.82-2.59a.44.44,0,0,1,.58,0L33.51,38l4.89-4.44a.44.44,0,0,1,.58,0l3.36,3.05v1.07l-3.65-3.32-4.85,4.41a.44.44,0,0,1-.58,0Z" transform="translate(-1.81 -1.71)"/><path class="a" d="M22.44,29.93v12a1.89,1.89,0,0,1-1.81,1.89h-17a1.89,1.89,0,0,1-1.81-1.89v-12A1.89,1.89,0,0,1,3.62,28H8.06a.48.48,0,0,1,0,.95H3.62a1,1,0,0,0-.9.95v12a1,1,0,0,0,.9.95h17a1,1,0,0,0,.9-.95v-12a1,1,0,0,0-.9-.95H16.26a.48.48,0,0,1,0-.95h4.38A1.89,1.89,0,0,1,22.44,29.93Zm-7.74-3.4V27.6a.36.36,0,0,1,0,.08.41.41,0,0,1,0,.08v9a.46.46,0,0,1-.09.27l-2.11,2.84a.45.45,0,0,1-.64.09l-.09-.09L9.65,37a.46.46,0,0,1-.09-.27v-9a.46.46,0,0,1,0-.08.42.42,0,0,1,0-.08V26.53a1.8,1.8,0,0,1,1.79-1.81H12.9a1.8,1.8,0,0,1,1.79,1.81h0Zm-4.21,9.66h1.2V28.06h-1.2Zm2.89.95H10.89l1.24,1.62Zm.41-9H12.59v8.09h1.2Zm0-.95v-.62a.88.88,0,0,0-.87-.89H11.36a.88.88,0,0,0-.88.88h0v.62h3.3Z" transform="translate(-1.81 -1.71)"/><path class="a" d="M55.61,21.37a6.69,6.69,0,0,1-1.91,0l-.27.66a1.09,1.09,0,0,1-1.41.61h0c-1.43-.6-2.14-.68-1.38-2.55a6.69,6.69,0,0,1-1.38-1.39L48.6,19a1.09,1.09,0,0,1-1.42-.58v0c-.59-1.46-1-2,.81-2.78a6.9,6.9,0,0,1,0-2l-.65-.28a1.12,1.12,0,0,1-.59-1.45c.68-1.63.75-2.13,2.52-1.38a6.69,6.69,0,0,1,1.34-1.39c-.23-.55-.49-1-.27-1.51a1.1,1.1,0,0,1,.59-.6c1-.4,2-1,2.48.16.23.55.71,1.31.16,1.53A.42.42,0,0,1,53,8.47h0c-.57-1.41-.3-1.29-1.78-.68a.26.26,0,0,0-.13.33c.91,2.22.21.7-1.38,3.14-.38.58-1.61-.59-1.81-.11l-.43,1.06a.26.26,0,0,0,.13.33c2.2,1,.65.36,1.21,3.21a.43.43,0,0,1-.25.48c-1.4.58-1.26.34-.67,1.8.19.49,1.41-.69,1.81-.11,1.6,2.44,2.29,1,1.38,3.14a.26.26,0,0,0,.13.33l1.05.44a.25.25,0,0,0,.32-.13c.91-2.22.37-.66,3.17-1.23.69-.14.73,1.58,1.2,1.37L58,21.4c.48-.21-.69-1.43-.11-1.82,2.41-1.61.91-2.32,3.1-1.4.34.13.61-.83.76-1.2a.26.26,0,0,0-.13-.33c-.56-.24-1.41-.42-1.19-1s1-.07,1.51.17c1.16.49.55,1.56.16,2.51a1.1,1.1,0,0,1-.59.6,1.66,1.66,0,0,1-1.49-.28,6.69,6.69,0,0,1-1.38,1.39l.27.66a1.12,1.12,0,0,1-.59,1.45C56.9,22.81,56.37,23.25,55.61,21.37Zm-1-3.29c3.11,0,4.07-3.93,3-3.93a.42.42,0,0,0-.42.42h0A2.6,2.6,0,1,1,54.61,12a.43.43,0,0,0,0-.86h0c-4.53,0-4.54,7,0,7Zm8-15.41V3.1a4.78,4.78,0,0,1,1.17.5c1-1,1.28-.61,2.17.29a1,1,0,0,1,0,1.31l-.3.31a4.94,4.94,0,0,1,.49,1.18c1.49,0,1.34.67,1.34,1.76a1,1,0,0,1-1,1h-.42a4.94,4.94,0,0,1-.49,1.18c1,1,.6,1.3-.29,2.2a.9.9,0,0,1-1.27,0l0,0-.3-.31a4.78,4.78,0,0,1-1.17.5c0,1.48-.6,1.36-1.74,1.36a1,1,0,0,1-1-1v-.43a4.78,4.78,0,0,1-1.17-.5c-1,1-1.28.61-2.17-.29a1,1,0,0,1,0-1.31l.3-.31a4.94,4.94,0,0,1-.41-1.18h-.42a1,1,0,0,1-1-1c0-1.2-.1-1.76,1.34-1.76A4.94,4.94,0,0,1,57,5.45c-1-1-.6-1.3.29-2.2a.9.9,0,0,1,1.27,0l0,0,.3.31A4.78,4.78,0,0,1,60,3.07c0-1.48.6-1.36,1.74-1.36A1,1,0,0,1,62.69,2.67Zm-.83,0a.07.07,0,0,0-.07-.07h-.89a.07.07,0,0,0,0,.07c0,1.84-.16.66-1.84,1.81a.42.42,0,0,1-.53,0c-.08-.08-.55-.62-.63-.54-.79.8-.79.47,0,1.22a.44.44,0,0,1,0,.54c-1.14,1.71,0,1.91-1.8,1.91a.07.07,0,0,0-.07.07V8.4a.07.07,0,0,0,.07.07c.49,0,1.08-.11,1.17.34.4,2,1.33,1.3,0,2.61-.09.09.62.74.68.69.33-.34.68-.86,1.07-.59,1.69,1.15,1.84,0,1.84,1.81a.07.07,0,0,0,.07.07h.82a.07.07,0,0,0,.07-.07c0-.48-.11-1.1.34-1.18,2-.4,1.29-1.36,2.57,0a.06.06,0,0,0,.08,0l0,0,.58-.59a.07.07,0,0,0,0-.09h0c-.34-.34-.84-.69-.58-1.08,1.14-1.71,0-1.91,1.8-1.91a.07.07,0,0,0,0-.07V7.57a.07.07,0,0,0-.07-.07c-.49,0-1.08.11-1.17-.34-.4-2-1.33-1.3,0-2.61a.07.07,0,0,0,0-.09h0c-.79-.8-.47-.8-1.21,0a.41.41,0,0,1-.53,0C62,3.31,61.86,4.49,61.86,2.67ZM63.9,8a2.51,2.51,0,0,1-5,0h0a2.51,2.51,0,1,1,5,0ZM59.71,8A1.67,1.67,0,1,0,63,8a1.68,1.68,0,1,0-3.35,0h0Z" transform="translate(-1.81 -1.71)"/><path class="a" d="M27,2.46A2.58,2.58,0,1,0,29.59,5,2.58,2.58,0,0,0,27,2.46ZM27,6.8A1.76,1.76,0,1,1,28.77,5,1.76,1.76,0,0,1,27,6.8Zm0,3.26a2.58,2.58,0,1,0,2.59,2.58A2.58,2.58,0,0,0,27,10.06Zm0,4.34a1.76,1.76,0,1,1,1.77-1.76A1.76,1.76,0,0,1,27,14.4Zm0,3.26a2.58,2.58,0,1,0,2.6,2.58A2.58,2.58,0,0,0,27,17.66ZM27,22a1.76,1.76,0,1,1,1.78-1.76A1.76,1.76,0,0,1,27,22h0ZM44.21,5.34H32.11a.44.44,0,0,1-.48-.4h0a.44.44,0,0,1,.48-.41h12.1a.44.44,0,0,1,.48.4h0a.44.44,0,0,1-.48.38ZM44,12.26a.42.42,0,1,1,0,.81H31.94a.42.42,0,1,1,0-.81Zm0,8.42H31.94a.42.42,0,1,1,0-.81H44a.42.42,0,1,1,0,.81Z" transform="translate(-1.81 -1.71)"/><path class="a" d="M3.59,15.46a.41.41,0,1,1-.76.28C-.79,5.62,11.78-2.34,19.35,5.07c0-.59-.17-1.45.39-1.46a.41.41,0,0,1,.41.41h0c0,2.86.55,2.47-2.4,2.47a.41.41,0,0,1-.41-.41h0c0-.57.84-.42,1.45-.43C11.78-1.2.29,6.21,3.59,15.46Zm1.68,4.09C12.87,27,25.4,19,21.8,8.89a.41.41,0,0,0-.77.28h0c3.31,9.28-8.17,16.71-15.19,9.8.6,0,1.45.14,1.45-.43a.41.41,0,0,0-.41-.41h0c-2.93,0-2.44-.42-2.4,2.47a.41.41,0,1,0,.82,0ZM17.95,10a6.12,6.12,0,0,1-5.28,8.44h-.35a6.1,6.1,0,1,1,5.63-8.46ZM7.67,9.72H9.14a6.44,6.44,0,0,1,1-2.26A5.26,5.26,0,0,0,7.67,9.72ZM7.3,14.09H9a10.57,10.57,0,0,1,0-3.55H7.34a5.26,5.26,0,0,0,0,3.55Zm2.93,3.12a6.63,6.63,0,0,1-1.11-2.3H7.67a5.26,5.26,0,0,0,2.6,2.3Zm1.78.34V14.91H10A3.79,3.79,0,0,0,12,17.55Zm0-7H9.79a9.54,9.54,0,0,0,0,3.55H12Zm0-3.46c-.93.23-1.66,1.23-2.08,2.66H12Zm2.89.6a6.61,6.61,0,0,1,.93,2H17A5.28,5.28,0,0,0,14.9,7.67Zm-2,2h2.08a3.57,3.57,0,0,0-2.08-2.66Zm0,4.37H15.1a9.54,9.54,0,0,0,0-3.55H12.87Zm2,.82h-2v2.65A3.79,3.79,0,0,0,14.91,14.91Zm2,0H15.77A6.84,6.84,0,0,1,14.84,17,5.23,5.23,0,0,0,17,14.91Zm.37-4.36H16a10.56,10.56,0,0,1,0,3.55h1.34a5.26,5.26,0,0,0,0-3.56Z" transform="translate(-1.81 -1.71)"/><path class="a" d="M86,9.12l-.86.51a9.34,9.34,0,0,0-9-4.52l-.11-1A10.35,10.35,0,0,1,86,9.12ZM81.33,22.53l-.75-1.75a2.31,2.31,0,0,1-3.29-1.06c-4.82-11.16-6.46-13-3.35-14.3l-.76-1.76a10.32,10.32,0,1,1,8.15,18.86Zm-1.15-2.66L74.34,6.34c-2,.87-1.19,1.27,3.87,13C78.49,20,79.16,20.3,80.18,19.86ZM86.67,9A9.31,9.31,0,0,0,74.48,4.15l7.39,17.11A9.33,9.33,0,0,0,86.67,9Z" transform="translate(-1.81 -1.71)"/></svg>