<svg xmlns="http://www.w3.org/2000/svg" xmlns:xlink="http://www.w3.org/1999/xlink" viewBox="0 0 131 46">
<defs><style>.cls-1{isolation:isolate;}.cls-2{opacity:0.75;mix-blend-mode:multiply;}.cls-3{fill:url(#linear-gradient);}</style>
  <linearGradient id="linear-gradient" x1="419.89" y1="279.86" x2="531.75" y2="279.86" gradientUnits="userSpaceOnUse"><stop offset="0" stop-color="#fbfbfb"></stop><stop offset="1" stop-color="#ebedee"></stop></linearGradient>
<filter id="shadow">
  <feGaussianBlur in="SourceAlpha" stdDeviation="2" result="blur" />
  <feOffset in="blur" dx="2" dy="2" result="offsetBlur"/>
  <feMerge>
    <feMergeNode in="offsetBlur"/>
    <feMergeNode in="SourceGraphic"/>
  </feMerge>
</filter>
</defs>
<title>MyLed</title>
<g id="Navlogo"><path class="cls-3" d="M531,274.43a11.51,11.51,0,0,0-2.52-4.42,11.3,11.3,0,0,0-4.39-2.91,19.9,19.9,0,0,0-7-1h-14.6v6.62h-12v3.5h12v7.29h-12V287h12v6.65h14.6a26,26,0,0,0,5.86-.75,11,11,0,0,0,4.42-2.19,11.45,11.45,0,0,0,3.22-4.08,16.3,16.3,0,0,0,1.16-6.85A18,18,0,0,0,531,274.43Zm-9.76,7.2a3.16,3.16,0,0,1-1,1.08,3.66,3.66,0,0,1-1.37.58,9.35,9.35,0,0,1-1.81.2h-4.52v-7.29H517a7.12,7.12,0,0,1,2.16.27,3.58,3.58,0,0,1,1.36.77,3,3,0,0,1,.78,1.17,4.12,4.12,0,0,1,.24,1.41A3.77,3.77,0,0,1,521.21,281.63Zm-42.73,8.51v-24L466.8,277.78v15.87h17.05v-3.5Zm-18.32-19,5.06-5.06H455.1Zm-40.27-5.07v27.57H431.7V277.5l6,6,6.89-6.89v17H455.1V276.2L445,266.08l-6.64,6.64-6.64-6.64Z" transform="translate(-412 -259)" filter="url(#shadow)"></path></g></svg>