<svg id="svg" version="1.1" xmlns="http://www.w3.org/2000/svg" xmlns:xlink="http://www.w3.org/1999/xlink" width="246" height="80" viewBox="0, 0, 400,311.6666666666667">
	<g id="Navlogo">
		<<path class="cls-3" d="M257.787 88.025 C 254.874 96.654,252.519 103.741,252.553 103.775 C 252.598 103.821,348.320 72.838,349.417 72.423 C 349.508 72.388,330.121 72.354,306.333 72.348 L 263.083 72.337 257.787 88.025 M215.216 188.868 C 218.128 193.373,244.945 234.678,245.250 235.129 L 245.620 235.676 260.823 212.406 C 269.184 199.607,275.989 189.100,275.945 189.056 C 275.901 189.012,263.464 188.687,248.307 188.334 C 233.151 187.981,219.304 187.646,217.536 187.589 L 214.323 187.486 215.216 188.868 " stroke="none" fill="#144c8c" fill-rule="evenodd"></path>
		<<path class="cls-3" d="M0.834 0.625 C 0.835 0.838,199.084 310.213,199.232 310.232 C 199.415 310.256,245.386 236.158,245.391 235.833 C 245.392 235.696,238.443 224.878,229.948 211.793 C 221.453 198.709,214.408 187.782,214.293 187.511 C 214.178 187.240,186.858 145.056,153.583 93.768 L 93.083 0.518 46.958 0.509 C 21.590 0.504,0.834 0.556,0.834 0.625 M165.363 0.732 C 165.392 0.860,176.029 17.022,189.000 36.648 L 212.583 72.332 282.021 72.333 L 351.459 72.333 375.105 36.558 C 388.110 16.882,398.775 0.720,398.806 0.642 C 398.836 0.564,346.312 0.500,282.085 0.500 C 182.339 0.500,165.317 0.534,165.363 0.732 " stroke="none" fill="#54ace4" fill-rule="evenodd"></path>
	</g>
</svg>
